<svg xmlns="http://www.w3.org/2000/svg" width="220" height="220" fill="none" stroke="#9a93c4" stroke-opacity="0.34" stroke-width="1.3" stroke-linecap="round" stroke-linejoin="round">
  <circle cx="28" cy="36" r="7"/>
  <path d="M18 78c6-8 14-8 18 0 4 8 12 8 16-1"/>
  <path d="M70 28l2.2 6.4 6.8.2-5.4 4.2 2 6.4-5.6-3.8-5.6 3.8 2-6.4-5.4-4.2 6.8-.2z"/>
  <rect x="118" y="22" width="16" height="16" rx="3" transform="rotate(12 126 30)"/>
  <path d="M168 40c8 0 12 6 8 12-6 2-12-4-8-12z"/>
  <circle cx="196" cy="78" r="4"/>
  <path d="M40 130h18M49 121v18"/>
  <path d="M96 112c10 2 14 14 6 20"/>
  <path d="M150 108l8 14h-16z"/>
  <path d="M186 140c0 8-10 14-16 8"/>
  <circle cx="72" cy="176" r="9"/>
  <path d="M124 168c8 6 18 4 22-4"/>
  <path d="M24 188c4-6 10-6 12 0 2 6 8 6 12 0"/>
  <rect x="168" y="176" width="14" height="14" rx="2"/>
</svg>
